<?xml version="1.0" encoding="utf-8"?>
<!-- Generator: Adobe Illustrator 24.0.2, SVG Export Plug-In . SVG Version: 6.00 Build 0)  -->
<svg version="1.1" id="Capa_1" xmlns="http://www.w3.org/2000/svg" xmlns:xlink="http://www.w3.org/1999/xlink" x="0px" y="0px"
	 viewBox="0 0 597.8 597.8" style="enable-background:new 0 0 597.8 597.8;" xml:space="preserve">
<style type="text/css">
	.st0{opacity:0.77;fill:#E4710F;}
	.st1{fill:#004D67;}
	.st2{fill:#303030;}
	.st3{fill:#CECECE;}
	.st4{fill:#9C3838;}
</style>
<polygon class="st0" points="410.4,91.2 86.1,91.2 86.1,597.8 511.7,597.8 511.7,192.5 "/>
<polygon class="st1" points="86.1,516.8 86.1,597.8 511.7,597.8 511.7,192.5 461,141.9 "/>
<polygon class="st2" points="511.7,192.5 410.4,192.5 410.4,91.2 "/>
<path class="st2" d="M217.9,91.2v91.2c0,16.8-13.6,30.4-30.4,30.4s-30.4-13.6-30.4-30.4v-50.7h-20.3v50.7c0,28,22.7,50.7,50.7,50.7
	s50.7-22.7,50.7-50.7V91.2H217.9z"/>
<rect x="136.8" y="253.3" class="st3" width="324.2" height="293.8"/>
<polygon class="st2" points="461,476.2 385,400.2 329.3,456 248.3,364.8 136.8,476.2 136.8,547.2 461,547.2 "/>
<circle class="st2" cx="329.3" cy="334.4" r="30.4"/>
<path class="st4" d="M177.3,222.9c-28,0-50.6-22.7-50.7-50.7v-40.5h20.3v40.5c0,16.8,13.6,30.4,30.4,30.4s30.4-13.6,30.4-30.4V50.7
	c0-16.8-13.6-30.4-30.4-30.4s-30.4,13.6-30.4,30.4v40.5h-20.3V50.7c0-28,22.7-50.7,50.7-50.7S228,22.7,228,50.7v121.6
	C228,200.2,205.3,222.9,177.3,222.9z"/>
</svg>
